# xmcd CD database file
#
# Track frame offsets:
#	150
#	44463
#	94409
#	138515
#	207332
#	260415
#
# Disc length: 4228 seconds
#
# Revision: 0
# Processed by: cddbd v1.5.2PL0 Copyright (c) Steve Scherf et al.
# Submitted via: CDex 1.51
#
DISCID=58108206
DTITLE=trio reflection - spirit of jazz
DYEAR=1900
DGENRE=Jazz
TTITLE0=Union
TTITLE1=Colorful Chariot
TTITLE2=Longing
TTITLE3=One Above
TTITLE4=Reflection
TTITLE5=Nardis
EXTD=
EXTT0=
EXTT1=
EXTT2=
EXTT3=
EXTT4=
EXTT5=
PLAYORDER=
